<?xml version="1.0" standalone="no"?>
<!DOCTYPE svg PUBLIC "-//W3C//DTD SVG 20010904//EN"
 "http://www.w3.org/TR/2001/REC-SVG-20010904/DTD/svg10.dtd">
<svg version="1.0" xmlns="http://www.w3.org/2000/svg"
 width="460.000000pt" height="460.000000pt" viewBox="0 0 460.000000 460.000000"
 preserveAspectRatio="xMidYMid meet">
<metadata>
Created by potrace 1.11, written by Peter Selinger 2001-2013
</metadata>
<g transform="translate(0.000000,460.000000) scale(0.100000,-0.100000)"
fill="#000000" stroke="none">
<path d="M0 3338 l0 -1261 62 -66 c35 -36 90 -100 124 -141 57 -71 67 -79 175
-132 63 -30 125 -59 139 -63 14 -4 30 -11 35 -15 6 -5 37 -16 70 -25 78 -23
146 -62 223 -127 33 -29 87 -64 119 -77 32 -12 86 -36 120 -52 35 -16 69 -29
77 -29 16 0 114 -64 136 -89 25 -28 105 -79 136 -87 16 -3 40 -17 54 -29 46
-42 102 -75 127 -75 14 0 43 14 64 31 l39 31 48 -35 c80 -60 404 -439 522
-612 56 -83 81 -116 166 -219 48 -58 141 -188 174 -242 14 -23 19 -24 95 -22
79 3 80 3 83 31 3 22 -1 27 -18 27 -12 0 -25 -10 -32 -25 -11 -24 -12 -24 -28
-8 -21 24 -50 66 -50 74 0 4 14 9 30 12 21 5 30 12 30 27 0 17 -6 20 -45 20
-38 0 -50 5 -80 36 -34 33 -36 40 -33 87 2 42 0 52 -15 55 -11 2 -20 -5 -25
-19 -8 -22 -9 -22 -30 9 -12 16 -22 34 -22 39 0 4 20 34 45 66 46 57 50 77 16
77 -16 0 -51 -34 -86 -85 -13 -19 -15 -19 -31 -3 -16 16 -15 19 11 50 45 54
93 91 210 159 195 116 262 142 347 137 l53 -3 5 -46 c4 -34 16 -59 43 -92 20
-25 37 -56 37 -70 0 -25 -90 -257 -130 -338 -12 -24 -47 -80 -76 -125 -30 -44
-54 -83 -54 -87 0 -4 392 -7 870 -7 l870 0 0 2300 0 2300 -2300 0 -2300 0 0
-1262z m1820 873 c0 -19 -48 -61 -93 -82 -26 -12 -47 -47 -47 -79 0 -24 -6
-27 -68 -36 l-51 -6 20 58 c26 73 38 86 114 129 69 40 125 47 125 16z m1026
-172 c36 -12 75 -19 99 -16 50 5 113 -24 119 -56 3 -12 7 -52 9 -88 3 -48 12
-81 32 -117 26 -48 27 -56 21 -132 -9 -94 1 -106 59 -70 55 34 86 40 118 21
30 -17 31 -21 16 -74 -17 -62 -83 -109 -172 -122 -62 -9 -88 -31 -131 -109
-33 -62 -56 -144 -71 -263 -4 -29 -10 -53 -13 -53 -39 1 -147 26 -194 46 -89
37 -194 117 -234 180 -13 19 -13 26 -2 43 16 26 19 26 68 1 61 -31 180 -45
259 -31 85 16 131 38 131 62 0 28 -24 33 -56 12 -23 -15 -49 -18 -149 -18
-116 0 -122 1 -183 33 -81 42 -88 60 -95 226 -6 144 4 194 48 252 14 19 29 51
31 72 10 65 26 96 81 150 29 29 53 57 53 62 0 17 95 11 156 -11z m-931 -82
l90 -12 0 -30 c0 -27 -4 -30 -40 -37 -22 -4 -95 -7 -161 -7 -95 -1 -124 -4
-134 -16 -18 -22 2 -41 53 -49 23 -4 75 -22 117 -41 41 -18 88 -37 103 -41 34
-8 56 -46 38 -68 -14 -16 -52 -9 -170 30 -41 14 -97 26 -125 27 -42 2 -51 -1
-54 -17 -8 -36 113 -111 228 -141 96 -25 131 -55 97 -83 -15 -13 -154 23 -254
65 -71 29 -86 25 -97 -29 -4 -22 -29 -55 -77 -101 -38 -38 -91 -99 -117 -136
-52 -73 -52 -73 -85 -116 -22 -29 -110 -178 -170 -288 -15 -29 -44 -90 -64
-136 l-36 -83 -48 100 c-26 55 -64 126 -84 157 l-38 56 24 32 c13 18 55 70 94
117 39 47 108 130 154 185 46 55 115 135 155 178 70 77 126 159 126 185 0 7 7
20 16 29 9 9 12 22 8 32 -19 45 -16 61 15 88 34 30 39 48 16 57 -45 17 13 75
93 92 72 16 211 16 327 1z m-555 -1021 c23 -24 50 -57 60 -73 21 -36 41 -122
34 -149 -4 -10 -57 -53 -119 -94 -63 -41 -135 -90 -162 -108 -54 -36 -65 -32
-77 34 -8 37 22 112 113 288 43 82 52 100 74 134 14 21 34 13 77 -32z m858
-15 c12 -7 11 -14 -2 -40 -19 -37 -47 -43 -39 -8 4 21 4 21 -11 3 -8 -10 -20
-16 -27 -14 -7 2 -1 16 16 36 28 33 40 38 63 23z m72 -50 c0 -10 -7 -24 -15
-31 -8 -7 -13 -16 -10 -20 3 -4 -2 -10 -10 -13 -9 -4 -12 -1 -8 8 4 12 -2 14
-28 8 -36 -7 -35 -6 14 48 22 25 57 25 57 0z m40 -19 c0 -4 -7 -17 -15 -30 -9
-12 -15 -28 -13 -36 4 -21 -13 -24 -25 -5 -7 12 -4 24 13 47 23 31 40 41 40
24z m60 -29 c0 -5 -9 -19 -20 -33 -15 -19 -16 -28 -7 -39 9 -12 9 -13 0 -7 -8
4 -13 2 -13 -4 0 -7 -7 -10 -15 -6 -20 7 -19 -4 3 -21 15 -12 14 -12 -9 -2
-26 11 -26 12 -11 43 24 48 73 95 72 69z m60 -33 c0 -16 -69 -87 -70 -72 0 7
12 29 26 48 26 34 44 44 44 24z m-195 -31 c15 -15 -10 -11 -41 7 l-29 16 30
-7 c17 -3 34 -11 40 -16z m245 -10 c0 -13 -4 -18 -12 -13 -8 5 -9 2 -4 -11 10
-28 -19 -65 -52 -64 -23 2 -24 2 -5 6 19 4 21 7 11 23 -14 23 -2 41 13 20 8
-12 9 -9 5 9 -6 27 8 51 30 51 8 0 14 -9 14 -21z m98 -60 c35 -23 43 -44 12
-34 -15 5 -18 3 -14 -9 4 -10 1 -16 -9 -16 -10 0 -13 -6 -10 -21 5 -19 4 -20
-16 -10 -26 14 -26 19 -1 51 25 31 25 35 0 37 -11 1 -29 -10 -40 -24 -26 -34
-39 -21 -17 16 9 16 17 37 17 46 0 16 1 16 23 1 12 -9 37 -26 55 -37z m-212
-45 c-22 -15 -36 -18 -36 -6 0 9 43 30 50 24 3 -2 -4 -10 -14 -18z m69 -4 c3
-5 2 -10 -4 -10 -5 0 -13 5 -16 10 -3 6 -2 10 4 10 5 0 13 -4 16 -10z m229
-13 c9 -16 7 -22 -11 -34 -13 -9 -23 -23 -23 -32 -1 -15 -2 -15 -13 0 -7 9
-18 14 -24 12 -18 -6 -16 5 8 44 23 36 45 40 63 10z m-138 -48 c22 -17 43 -38
48 -47 6 -12 3 -11 -11 3 -28 27 -56 50 -79 63 -11 6 -14 12 -8 12 6 0 29 -14
50 -31z m666 -924 l46 -16 7 -84 c4 -46 5 -150 1 -232 -3 -81 -9 -230 -12
-330 l-6 -182 -30 22 c-32 24 -92 42 -183 57 -81 12 -163 -6 -203 -47 -44 -43
-39 25 7 94 30 44 70 77 142 113 38 20 52 51 29 65 -10 6 -84 -28 -114 -54
-18 -16 -19 -14 -12 64 26 307 36 437 36 487 0 51 2 57 23 62 46 10 223 -2
269 -19z m-782 -1059 c0 -2 -7 -7 -16 -10 -8 -3 -12 -2 -9 4 6 10 25 14 25 6z"/>
<path d="M2250 2860 c-8 -5 -12 -12 -9 -15 4 -3 12 1 19 10 14 17 11 19 -10 5z"/>
<path d="M2782 363 c-7 -3 -24 -27 -38 -54 -14 -28 -31 -52 -39 -56 -20 -7
-19 -42 1 -50 21 -8 61 32 91 91 20 40 22 51 11 61 -7 7 -19 10 -26 8z"/>
</g>
</svg>
